<svg width="548" height="243" xmlns="http://www.w3.org/2000/svg">
 <defs>
  <style>.cls-1{fill:#d32f2f;}</style>
 </defs>
 <title>logo</title>
 <g>
  <title>background</title>
  <rect fill="none" id="canvas_background" height="245" width="550" y="-1" x="-1"/>
 </g>
 <g>
  <title>Layer 1</title>
  <g id="Layer_3">
   <!-- <path class="cls-1" d="M727.44,136.69l-7.7,19.76H700.47L737,60.26h14.17l35.55,96.19H767.21L760,136.69Zm15.79-49H743l-10.32,34.06h22.25Z"/>
        <path class="cls-1" d="M854.46,62.74h26.1c27.09,0,45.24,20.26,45.24,47,0,26.35-18.64,46.73-45.36,46.73h-26Zm18.27,77.8h3c22.5,0,31.2-12.43,31.2-30.94,0-20.39-10.44-30.95-31.2-30.95h-3Z"/>
        <path class="cls-1" d="M1015.16,78.65V99.28h29.08v15.91h-29.08v25.35h30.2v15.91H996.89V62.74h48.47V78.65Z"/>
        <path class="cls-1" d="M1119.68,60.26h13.18l49.34,65.49h.25v-63h18.27v95.58h-13.18l-49.34-65.5H1138v63.63h-18.27Z"/>
        <path class="cls-1" d="M718.74,227.46v20.63h29.08V264H718.74v25.35h30.2v15.91H700.47V211.55h48.47v15.91Z"/>
        <path class="cls-1" d="M842.4,285.5l-7.7,19.76H815.44L852,209.06h14.17l35.55,96.2H882.18L875,285.5Zm15.79-49h-.25l-10.32,34h22.25Z"/>
        <path class="cls-1" d="M1032.81,305.26h-22.12l-22.75-37.78h-.25v37.78H969.42V211.55h24.74c18.51,0,31.32,8.2,31.32,28.21,0,11.93-6.59,23.86-19.14,26Zm-45.12-50.58h2.36c10.07,0,17.16-3,17.16-14.42s-7.34-13.8-17-13.8h-2.49Z"/>
        <path class="cls-1" d="M1100.92,209.06h13.17l49.34,65.5h.25v-63H1182v95.57h-13.17l-49.34-65.49h-.25v63.63h-18.27Z"/>
        <path class="cls-1" d="M1301.51,232.18c-3.48-4.72-8-7.71-14-7.71-5.84,0-11.44,4.48-11.44,10.57,0,15.78,37.16,9.2,37.16,40.64,0,18.77-11.68,32.06-30.82,32.06-12.92,0-22.37-7.45-28.83-18.27l11.8-11.55c2.49,7.2,9.08,13.67,16.91,13.67,7.45,0,12-6.34,12-13.55,0-9.69-9-12.43-16.28-15.29-12-5-20.88-11.06-20.88-25.6,0-15.53,11.56-28.09,27.34-28.09,8.33,0,19.89,4.1,25.61,10.44Z"/>
        <path class="cls-1" d="M1437,248.46V211.55h18.27v93.71H1437V263.38h-33.81v41.88H1384.9V211.55h18.27v36.91Z"/>
        <path class="cls-1" d="M1550,285.5l-7.7,19.76H1523l36.54-96.2h14.17l35.55,96.2h-19.51l-7.21-19.76Zm15.79-49h-.25l-10.32,34h22.25Z"/>
        <path class="cls-1" d="M1694.13,275.43h.24L1713,210.31h10.81l19.39,65.12h.25l18.39-63.88H1781l-31.69,95.57h-13.43l-18.64-61.27H1717l-17.65,61.27h-13.42l-29.83-95.57h19.14Z"/> -->
   <path id="svg_1" d="m548.74,1a66.09,66.09 0 0 1 -66.1,66.06l-240.82,0a175.1,175.1 0 0 0 -175.22,175.26l-65.6,0c0,-133.17 107.65,-241.32 240.82,-241.32l306.92,0z" class="cls-1"/>
   <path id="svg_2" d="m548.24,89.13a65.61,65.61 0 0 1 -65.6,65.56l-240.82,0a87.41,87.41 0 0 0 -87.6,87.63l-65.59,0a153.18,153.18 0 0 1 153.19,-153.19l306.42,0z" class="cls-1"/>
   <path id="svg_3" d="m548.74,176.22a66.11,66.11 0 0 1 -66.1,66.1l-306.41,0c0,-36.57 29.56,-66.1 65.59,-66.1l306.92,0z" class="cls-1"/>
  </g>
 </g>
</svg>