<svg xmlns="http://www.w3.org/2000/svg" width="230" height="50" viewBox="0 0 230 50">
  <g id="header_cv" fill="none" fill-rule="evenodd" stroke="none" stroke-width="1">
    <g id="Group" fill="#151515" fill-rule="nonzero" transform="translate(-1 -10)">
      <path id="Curriculum" d="M19.69277,25.52 C19.2727679,26.4600047 18.7427732,27.3549958 18.10277,28.205 C17.4627668,29.0550042 16.7277742,29.7899969 15.89777,30.41 C15.0677659,31.0300031 14.1477751,31.5199982 13.13777,31.88 C12.127765,32.2400018 11.0427758,32.42 9.88277,32.42 C7.2627569,32.42 5.3327762,31.7650065 4.09277,30.455 C2.8527638,29.1449935 2.23277,27.4500104 2.23277,25.37 C2.23277,23.9299928 2.47776755,22.4550076 2.96777,20.945 C3.45777245,19.4349924 4.15776545,18.075006 5.06777,16.865 C5.97777455,15.654994 7.1027633,14.6650038 8.44277,13.895 C9.7827767,13.1249962 11.2927616,12.74 12.97277,12.74 C14.772779,12.74 16.2027647,13.139996 17.26277,13.94 C18.3227753,14.740004 19.0127684,15.8299931 19.33277,17.21 L19.54277,17.18 C19.742771,16.4199962 19.9227692,15.6850036 20.08277,14.975 C20.2427708,14.2649965 20.3727695,13.6600025 20.47277,13.16 C20.7927716,13.1800001 21.1227683,13.19 21.46277,13.19 C21.8027717,13.19 22.1327684,13.1800001 22.45277,13.16 C22.252769,13.6600025 22.0377712,14.2699964 21.80777,14.99 C21.5777689,15.7100036 21.3577711,16.4499962 21.14777,17.21 C20.937769,17.9700038 20.7427709,18.7249963 20.56277,19.475 C20.3827691,20.2250038 20.2327706,20.8699973 20.11277,21.41 C19.912769,21.3699998 19.6677715,21.3400001 19.37777,21.32 C19.0877686,21.2999999 18.8327711,21.2800001 18.61277,21.26 C18.6327701,21.1199993 18.64277,20.9750007 18.64277,20.825 L18.64277,20.39 C18.64277,18.2499893 18.1277752,16.6900049 17.09777,15.71 C16.0677649,14.7299951 14.7427781,14.24 13.12277,14.24 C11.7427631,14.24 10.4877757,14.5849966 9.35777,15.275 C8.22776435,15.9650035 7.26777395,16.8399947 6.47777,17.9 C5.68776605,18.9600053 5.07777215,20.1399935 4.64777,21.44 C4.21776785,22.7400065 4.00277,24.0099938 4.00277,25.25 C4.00277,27.1700096 4.51776485,28.5949954 5.54777,29.525 C6.57777515,30.4550046 8.0527604,30.92 9.97277,30.92 C10.9527749,30.92 11.8577659,30.7600016 12.68777,30.44 C13.5177742,30.1199984 14.2777666,29.6800028 14.96777,29.12 C15.6577735,28.5599972 16.2777673,27.9100037 16.82777,27.17 C17.3777728,26.4299963 17.8427681,25.6400042 18.22277,24.8 C18.4627712,24.9400007 18.7027688,25.0699994 18.94277,25.19 C19.1827712,25.3100006 19.4327687,25.4199995 19.69277,25.52 Z M29.272493,17.24 C29.9924966,17.24 30.5624909,17.4499979 30.982493,17.87 C31.4024951,18.2900021 31.612493,18.9199958 31.612493,19.76 C31.612493,20.5800041 31.4274949,21.394996 31.057493,22.205 C30.6874912,23.0150041 30.2874952,23.7999962 29.857493,24.56 C29.4274909,25.3200038 29.0274949,26.0649964 28.657493,26.795 C28.2874912,27.5250037 28.102493,28.2299966 28.102493,28.91 C28.102493,29.5700033 28.2924911,30.0449986 28.672493,30.335 C29.0524949,30.6250014 29.5624898,30.77 30.202493,30.77 C30.8224961,30.77 31.5174892,30.6200015 32.287493,30.32 C33.0574969,30.0199985 33.8774887,29.4400043 34.747493,28.58 C35.6174974,27.7199957 36.5324882,26.5000079 37.492493,24.92 C38.4524978,23.3399921 39.432488,21.2700128 40.432493,18.71 C40.5124934,18.4699988 40.6024925,18.2300012 40.702493,17.99 C40.8024935,17.7499988 40.8924926,17.5000013 40.972493,17.24 C41.1924941,17.3000003 41.4724913,17.3549998 41.812493,17.405 C42.1524947,17.4550003 42.422492,17.48 42.622493,17.48 C41.9624897,19.0600079 41.3924954,20.4599939 40.912493,21.68 C40.4324906,22.9000061 40.0424945,23.9749954 39.742493,24.905 C39.4424915,25.8350047 39.2174938,26.6649963 39.067493,27.395 C38.9174923,28.1250037 38.842493,28.7999969 38.842493,29.42 C38.842493,29.8600022 38.9574919,30.2049988 39.187493,30.455 C39.4174942,30.7050012 39.7624907,30.83 40.222493,30.83 C40.8024959,30.83 41.3274907,30.6100022 41.797493,30.17 C42.2674954,29.7299978 42.7624904,29.0800043 43.282493,28.22 C43.482494,28.4000009 43.6774921,28.5599993 43.867493,28.7 C44.057494,28.8400007 44.2824917,28.9999991 44.542493,29.18 C43.7824892,30.1600049 43.0624964,30.9249973 42.382493,31.475 C41.7024896,32.0250027 40.9024976,32.3 39.982493,32.3 C39.3024896,32.3 38.6974957,32.0900021 38.167493,31.67 C37.6374904,31.2499979 37.372493,30.5900045 37.372493,29.69 C37.372493,29.3499983 37.4124926,28.9400024 37.492493,28.46 C37.5724934,27.9799976 37.6824923,27.440003 37.822493,26.84 L37.552493,26.84 C36.2724866,28.9600106 34.9874995,30.3899963 33.697493,31.13 C32.4074866,31.8700037 31.1324993,32.24 29.872493,32.24 C28.8324878,32.24 27.9974962,31.9700027 27.367493,31.43 C26.7374899,30.8899973 26.422493,30.0900053 26.422493,29.03 C26.422493,28.1699957 26.6074912,27.3250042 26.977493,26.495 C27.3474949,25.6649959 27.7474909,24.8650039 28.177493,24.095 C28.6074952,23.3249961 29.0074912,22.5800036 29.377493,21.86 C29.7474949,21.1399964 29.932493,20.4600032 29.932493,19.82 C29.932493,19.4399981 29.8524938,19.1600009 29.692493,18.98 C29.5324922,18.7999991 29.3024945,18.71 29.002493,18.71 C28.602491,18.71 28.1624954,18.8899982 27.682493,19.25 C27.2024906,19.6100018 26.6124965,20.3299946 25.912493,21.41 C25.7324921,21.2299991 25.542494,21.0550008 25.342493,20.885 C25.142492,20.7149992 24.942494,20.5600007 24.742493,20.42 C25.5024968,19.3599947 26.2474894,18.5650026 26.977493,18.035 C27.7074967,17.5049974 28.472489,17.24 29.272493,17.24 Z M59.552216,32 C59.152214,31.9799999 58.3772218,31.9650001 57.227216,31.955 C56.0772103,31.9449999 54.8572225,31.94 53.567216,31.94 C52.2772096,31.94 51.0672217,31.9449999 49.937216,31.955 C48.8072104,31.9650001 48.0522179,31.9799999 47.672216,32 C47.7722165,31.7399987 47.8672156,31.4650014 47.957216,31.175 C48.0472165,30.8849985 48.1122158,30.6100013 48.152216,30.35 C48.3922172,30.3700001 48.7922132,30.3899999 49.352216,30.41 C49.9122188,30.4300001 50.5622123,30.44 51.302216,30.44 C51.7222181,30.44 52.0572148,30.3550008 52.307216,30.185 C52.5572173,30.0149992 52.7922149,29.6500028 53.012216,29.09 C53.8722203,26.9499893 54.5272138,25.1050077 54.977216,23.555 C55.4272183,22.0049923 55.652216,20.830004 55.652216,20.03 C55.652216,19.5899978 55.5772168,19.2500012 55.427216,19.01 C55.2772153,18.7699988 55.0122179,18.65 54.632216,18.65 C54.0522131,18.65 53.4322193,18.9049974 52.772216,19.415 C52.1122127,19.9250025 51.4722191,20.6199956 50.852216,21.5 C50.6122148,21.2399987 50.4022169,21.0250008 50.222216,20.855 C50.0422151,20.6849992 49.852217,20.5300007 49.652216,20.39 C50.5922207,19.389995 51.4872118,18.6050028 52.337216,18.035 C53.1872203,17.4649972 54.0222119,17.18 54.842216,17.18 C55.5222194,17.18 56.0722139,17.3949979 56.492216,17.825 C56.9122181,18.2550022 57.122216,18.869996 57.122216,19.67 C57.122216,20.070002 57.0522167,20.5549971 56.912216,21.125 C56.7722153,21.6950029 56.5822172,22.3499963 56.342216,23.09 L56.582216,23.09 C57.582221,21.0699899 58.6672102,19.5800048 59.837216,18.62 C61.0072219,17.6599952 62.2522094,17.18 63.572216,17.18 C64.2722195,17.18 64.8772135,17.3099987 65.387216,17.57 C65.8972186,17.8300013 66.3072145,18.159998 66.617216,18.56 C66.9272176,18.960002 67.1522153,19.4049975 67.292216,19.895 C67.4322167,20.3850025 67.502216,20.8699976 67.502216,21.35 C67.502216,22.2100043 67.2772183,22.9149972 66.827216,23.465 C66.3772138,24.0150028 65.7322202,24.29 64.892216,24.29 C64.2522128,24.29 63.7472179,24.1200017 63.377216,23.78 C63.0072142,23.4399983 62.822216,23.0100026 62.822216,22.49 C62.822216,21.9299972 63.0122141,21.5000015 63.392216,21.2 C63.7722179,20.8999985 64.1922137,20.75 64.652216,20.75 C64.9722176,20.75 65.2472149,20.8099994 65.477216,20.93 C65.7072172,21.0500006 65.9122151,21.1899992 66.092216,21.35 C66.0722159,20.3899952 65.7772189,19.715002 65.207216,19.325 C64.6372132,18.9349981 64.0422191,18.74 63.422216,18.74 C62.6622122,18.74 61.88722,18.9899975 61.097216,19.49 C60.3072121,19.9900025 59.5422197,20.6849956 58.802216,21.575 C58.0622123,22.4650045 57.3522194,23.5349937 56.672216,24.785 C55.9922126,26.0350063 55.3722188,27.3999926 54.812216,28.88 C54.6722153,29.3000021 54.6522155,29.6649984 54.752216,29.975 C54.8522165,30.2850016 55.1722133,30.44 55.712216,30.44 C56.6322206,30.44 57.4872121,30.4300001 58.277216,30.41 C59.06722,30.3899999 59.6522141,30.3700001 60.032216,30.35 C59.9322155,30.6100013 59.8422164,30.8849985 59.762216,31.175 C59.6822156,31.4650014 59.6122163,31.7399987 59.552216,32 Z M82.811939,32 C82.411937,31.9799999 81.6369448,31.9650001 80.486939,31.955 C79.3369333,31.9449999 78.1169455,31.94 76.826939,31.94 C75.5369326,31.94 74.3269447,31.9449999 73.196939,31.955 C72.0669334,31.9650001 71.3119409,31.9799999 70.931939,32 C71.0319395,31.7399987 71.1269386,31.4650014 71.216939,31.175 C71.3069395,30.8849985 71.3719388,30.6100013 71.411939,30.35 C71.6519402,30.3700001 72.0519362,30.3899999 72.611939,30.41 C73.1719418,30.4300001 73.8219353,30.44 74.561939,30.44 C74.9819411,30.44 75.3169378,30.3550008 75.566939,30.185 C75.8169403,30.0149992 76.0519379,29.6500028 76.271939,29.09 C77.1319433,26.9499893 77.7869368,25.1050077 78.236939,23.555 C78.6869413,22.0049923 78.911939,20.830004 78.911939,20.03 C78.911939,19.5899978 78.8369398,19.2500012 78.686939,19.01 C78.5369383,18.7699988 78.2719409,18.65 77.891939,18.65 C77.3119361,18.65 76.6919423,18.9049974 76.031939,19.415 C75.3719357,19.9250025 74.7319421,20.6199956 74.111939,21.5 C73.8719378,21.2399987 73.6619399,21.0250008 73.481939,20.855 C73.3019381,20.6849992 73.11194,20.5300007 72.911939,20.39 C73.8519437,19.389995 74.7469348,18.6050028 75.596939,18.035 C76.4469433,17.4649972 77.2819349,17.18 78.101939,17.18 C78.7819424,17.18 79.3319369,17.3949979 79.751939,17.825 C80.1719411,18.2550022 80.381939,18.869996 80.381939,19.67 C80.381939,20.070002 80.3119397,20.5549971 80.171939,21.125 C80.0319383,21.6950029 79.8419402,22.3499963 79.601939,23.09 L79.841939,23.09 C80.841944,21.0699899 81.9269332,19.5800048 83.096939,18.62 C84.2669449,17.6599952 85.5119324,17.18 86.831939,17.18 C87.5319425,17.18 88.1369365,17.3099987 88.646939,17.57 C89.1569416,17.8300013 89.5669375,18.159998 89.876939,18.56 C90.1869406,18.960002 90.4119383,19.4049975 90.551939,19.895 C90.6919397,20.3850025 90.761939,20.8699976 90.761939,21.35 C90.761939,22.2100043 90.5369413,22.9149972 90.086939,23.465 C89.6369368,24.0150028 88.9919432,24.29 88.151939,24.29 C87.5119358,24.29 87.0069409,24.1200017 86.636939,23.78 C86.2669372,23.4399983 86.081939,23.0100026 86.081939,22.49 C86.081939,21.9299972 86.2719371,21.5000015 86.651939,21.2 C87.0319409,20.8999985 87.4519367,20.75 87.911939,20.75 C88.2319406,20.75 88.5069379,20.8099994 88.736939,20.93 C88.9669402,21.0500006 89.1719381,21.1899992 89.351939,21.35 C89.3319389,20.3899952 89.0369419,19.715002 88.466939,19.325 C87.8969362,18.9349981 87.3019421,18.74 86.681939,18.74 C85.9219352,18.74 85.146943,18.9899975 84.356939,19.49 C83.5669351,19.9900025 82.8019427,20.6849956 82.061939,21.575 C81.3219353,22.4650045 80.6119424,23.5349937 79.931939,24.785 C79.2519356,26.0350063 78.6319418,27.3999926 78.071939,28.88 C77.9319383,29.3000021 77.9119385,29.6649984 78.011939,29.975 C78.1119395,30.2850016 78.4319363,30.44 78.971939,30.44 C79.8919436,30.44 80.7469351,30.4300001 81.536939,30.41 C82.326943,30.3899999 82.9119371,30.3700001 83.291939,30.35 C83.1919385,30.6100013 83.1019394,30.8849985 83.021939,31.175 C82.9419386,31.4650014 82.8719393,31.7399987 82.811939,32 Z M104.811662,12.56 C104.811662,11.9999972 105.00166,11.5050021 105.381662,11.075 C105.761664,10.6449978 106.311662,10.43 107.031662,10.43 C107.751666,10.43 108.30166,10.6449978 108.681662,11.075 C109.061664,11.5050021 109.251662,11.9999972 109.251662,12.56 C109.251662,13.160003 109.061664,13.659998 108.681662,14.06 C108.30166,14.460002 107.751666,14.66 107.031662,14.66 C106.251658,14.66 105.686664,14.460002 105.336662,14.06 C104.98666,13.659998 104.811662,13.160003 104.811662,12.56 Z M101.421662,29.12 C101.421662,28.2999959 101.61166,27.4850041 101.991662,26.675 C102.371664,25.864996 102.78666,25.0800038 103.236662,24.32 C103.686664,23.5599962 104.10166,22.8300035 104.481662,22.13 C104.861664,21.4299965 105.051662,20.780003 105.051662,20.18 C105.051662,19.6999976 104.911663,19.3450012 104.631662,19.115 C104.351661,18.8849989 103.941665,18.77 103.401662,18.77 C102.481657,18.77 101.441668,19.0999967 100.281662,19.76 C99.1216562,20.4200033 97.7316701,21.649991 96.111662,23.45 C95.9316611,23.2099988 95.746663,23.0150008 95.556662,22.865 C95.3666611,22.7149993 95.1416633,22.5200012 94.881662,22.28 C96.5616704,20.6399918 98.0766553,19.3900043 99.426662,18.53 C100.776669,17.6699957 102.151655,17.24 103.551662,17.24 C104.431666,17.24 105.201659,17.4849976 105.861662,17.975 C106.521665,18.4650025 106.851662,19.1999951 106.851662,20.18 C106.851662,20.8000031 106.661664,21.4949961 106.281662,22.265 C105.90166,23.0350039 105.491664,23.819996 105.051662,24.62 C104.61166,25.420004 104.201664,26.2049961 103.821662,26.975 C103.44166,27.7450039 103.251662,28.4199971 103.251662,29 C103.251662,29.6400032 103.401661,30.1049986 103.701662,30.395 C104.001664,30.6850015 104.521658,30.83 105.261662,30.83 C106.321667,30.83 107.426656,30.4750036 108.576662,29.765 C109.726668,29.0549965 110.821657,27.8700083 111.861662,26.21 C112.061663,26.410001 112.281661,26.5849992 112.521662,26.735 C112.761663,26.8850007 113.04166,27.0299993 113.361662,27.17 C112.021655,29.1500099 110.641669,30.4999964 109.221662,31.22 C107.801655,31.9400036 106.431669,32.3 105.111662,32.3 C103.931656,32.3 103.021665,32.0300027 102.381662,31.49 C101.741659,30.9499973 101.421662,30.1600052 101.421662,29.12 Z M126.511385,32.3 C124.011373,32.3 122.151391,31.7950051 120.931385,30.785 C119.711379,29.7749949 119.101385,28.3000097 119.101385,26.36 C119.101385,25.1399939 119.346383,23.9750056 119.836385,22.865 C120.326387,21.7549945 121.021381,20.7800042 121.921385,19.94 C122.82139,19.0999958 123.926378,18.4300025 125.236385,17.93 C126.546392,17.4299975 128.011377,17.18 129.631385,17.18 C130.65139,17.18 131.526381,17.3099987 132.256385,17.57 C132.986389,17.8300013 133.576383,18.164998 134.026385,18.575 C134.476387,18.9850021 134.806384,19.4499974 135.016385,19.97 C135.226386,20.4900026 135.331385,20.9999975 135.331385,21.5 C135.331385,22.2800039 135.106387,22.9399973 134.656385,23.48 C134.206383,24.0200027 133.561389,24.29 132.721385,24.29 C132.081382,24.29 131.576387,24.1250017 131.206385,23.795 C130.836383,23.4649984 130.651385,23.0500025 130.651385,22.55 C130.651385,21.9899972 130.856383,21.5550016 131.266385,21.245 C131.676387,20.9349985 132.131383,20.78 132.631385,20.78 C132.911386,20.78 133.151384,20.8149997 133.351385,20.885 C133.551386,20.9550004 133.721384,21.0599993 133.861385,21.2 C133.661384,20.2999955 133.126389,19.6650019 132.256385,19.295 C131.386381,18.9249982 130.45139,18.74 129.451385,18.74 C128.051378,18.74 126.80639,18.9499979 125.716385,19.37 C124.62638,19.7900021 123.721389,20.3499965 123.001385,21.05 C122.281381,21.7500035 121.731387,22.5549954 121.351385,23.465 C120.971383,24.3750045 120.781385,25.3099952 120.781385,26.27 C120.781385,27.8300078 121.27638,28.9799963 122.266385,29.72 C123.25639,30.4600037 124.721375,30.83 126.661385,30.83 C128.201393,30.83 129.576379,30.525003 130.786385,29.915 C131.996391,29.3049969 133.07138,28.5100049 134.011385,27.53 C134.171386,27.7100009 134.356384,27.894999 134.566385,28.085 C134.776386,28.2750009 135.001384,28.469999 135.241385,28.67 C134.001379,29.870006 132.701392,30.774997 131.341385,31.385 C129.981378,31.9950031 128.371394,32.3 126.511385,32.3 Z M145.571108,17.24 C146.291112,17.24 146.861106,17.4499979 147.281108,17.87 C147.70111,18.2900021 147.911108,18.9199958 147.911108,19.76 C147.911108,20.5800041 147.72611,21.394996 147.356108,22.205 C146.986106,23.0150041 146.58611,23.7999962 146.156108,24.56 C145.726106,25.3200038 145.32611,26.0649964 144.956108,26.795 C144.586106,27.5250037 144.401108,28.2299966 144.401108,28.91 C144.401108,29.5700033 144.591106,30.0449986 144.971108,30.335 C145.35111,30.6250014 145.861105,30.77 146.501108,30.77 C147.121111,30.77 147.816104,30.6200015 148.586108,30.32 C149.356112,30.0199985 150.176104,29.4400043 151.046108,28.58 C151.916112,27.7199957 152.831103,26.5000079 153.791108,24.92 C154.751113,23.3399921 155.731103,21.2700128 156.731108,18.71 C156.811108,18.4699988 156.901108,18.2300012 157.001108,17.99 C157.101109,17.7499988 157.191108,17.5000013 157.271108,17.24 C157.491109,17.3000003 157.771106,17.3549998 158.111108,17.405 C158.45111,17.4550003 158.721107,17.48 158.921108,17.48 C158.261105,19.0600079 157.69111,20.4599939 157.211108,21.68 C156.731106,22.9000061 156.34111,23.9749954 156.041108,24.905 C155.741107,25.8350047 155.516109,26.6649963 155.366108,27.395 C155.216107,28.1250037 155.141108,28.7999969 155.141108,29.42 C155.141108,29.8600022 155.256107,30.2049988 155.486108,30.455 C155.716109,30.7050012 156.061106,30.83 156.521108,30.83 C157.101111,30.83 157.626106,30.6100022 158.096108,30.17 C158.56611,29.7299978 159.061105,29.0800043 159.581108,28.22 C159.781109,28.4000009 159.976107,28.5599993 160.166108,28.7 C160.356109,28.8400007 160.581107,28.9999991 160.841108,29.18 C160.081104,30.1600049 159.361111,30.9249973 158.681108,31.475 C158.001105,32.0250027 157.201113,32.3 156.281108,32.3 C155.601105,32.3 154.996111,32.0900021 154.466108,31.67 C153.936105,31.2499979 153.671108,30.5900045 153.671108,29.69 C153.671108,29.3499983 153.711108,28.9400024 153.791108,28.46 C153.871108,27.9799976 153.981107,27.440003 154.121108,26.84 L153.851108,26.84 C152.571102,28.9600106 151.286114,30.3899963 149.996108,31.13 C148.706102,31.8700037 147.431114,32.24 146.171108,32.24 C145.131103,32.24 144.296111,31.9700027 143.666108,31.43 C143.036105,30.8899973 142.721108,30.0900053 142.721108,29.03 C142.721108,28.1699957 142.906106,27.3250042 143.276108,26.495 C143.64611,25.6649959 144.046106,24.8650039 144.476108,24.095 C144.90611,23.3249961 145.306106,22.5800036 145.676108,21.86 C146.04611,21.1399964 146.231108,20.4600032 146.231108,19.82 C146.231108,19.4399981 146.151109,19.1600009 145.991108,18.98 C145.831107,18.7999991 145.60111,18.71 145.301108,18.71 C144.901106,18.71 144.46111,18.8899982 143.981108,19.25 C143.501106,19.6100018 142.911112,20.3299946 142.211108,21.41 C142.031107,21.2299991 141.841109,21.0550008 141.641108,20.885 C141.441107,20.7149992 141.241109,20.5600007 141.041108,20.42 C141.801112,19.3599947 142.546104,18.5650026 143.276108,18.035 C144.006112,17.5049974 144.771104,17.24 145.571108,17.24 Z M171.380831,28.7 C171.380831,29.3200031 171.585829,29.824998 171.995831,30.215 C172.405833,30.605002 173.100826,30.8 174.080831,30.8 C175.280837,30.8 176.585824,30.3800042 177.995831,29.54 C179.405838,28.6999958 180.860824,27.2300105 182.360831,25.13 C182.620832,25.4100014 182.85583,25.6299992 183.065831,25.79 C183.275832,25.9500008 183.48083,26.0999993 183.680831,26.24 C181.900822,28.3200104 180.270838,29.8499951 178.790831,30.83 C177.310824,31.8100049 175.70084,32.3 173.960831,32.3 C172.580824,32.3 171.515835,32.0050029 170.765831,31.415 C170.015827,30.8249971 169.640831,29.9500058 169.640831,28.79 C169.640831,27.7699949 169.920828,26.5750068 170.480831,25.205 C171.040834,23.8349931 171.660828,22.4600069 172.340831,21.08 C173.020834,19.6999931 173.640828,18.3950062 174.200831,17.165 C174.760834,15.9349938 175.040831,14.9600036 175.040831,14.24 C175.040831,13.839998 174.925832,13.545001 174.695831,13.355 C174.46583,13.1649991 174.120833,13.07 173.660831,13.07 C172.860827,13.07 171.895837,13.3499972 170.765831,13.91 C169.635825,14.4700028 168.20084,15.4199933 166.460831,16.76 C166.30083,16.4799986 166.140832,16.2300011 165.980831,16.01 C165.82083,15.7899989 165.670832,15.580001 165.530831,15.38 C167.170839,14.1199937 168.700824,13.1500034 170.120831,12.47 C171.540838,11.7899966 172.800826,11.45 173.900831,11.45 C174.700835,11.45 175.375828,11.6849976 175.925831,12.155 C176.475834,12.6250024 176.750831,13.3199954 176.750831,14.24 C176.750831,15.1600046 176.470834,16.2699935 175.910831,17.57 C175.350828,18.8700065 174.735834,20.1949932 174.065831,21.545 C173.395828,22.8950068 172.780834,24.2049936 172.220831,25.475 C171.660828,26.7450063 171.380831,27.8199956 171.380831,28.7 Z M192.090554,17.24 C192.810558,17.24 193.380552,17.4499979 193.800554,17.87 C194.220556,18.2900021 194.430554,18.9199958 194.430554,19.76 C194.430554,20.5800041 194.245556,21.394996 193.875554,22.205 C193.505552,23.0150041 193.105556,23.7999962 192.675554,24.56 C192.245552,25.3200038 191.845556,26.0649964 191.475554,26.795 C191.105552,27.5250037 190.920554,28.2299966 190.920554,28.91 C190.920554,29.5700033 191.110552,30.0449986 191.490554,30.335 C191.870556,30.6250014 192.380551,30.77 193.020554,30.77 C193.640557,30.77 194.33555,30.6200015 195.105554,30.32 C195.875558,30.0199985 196.69555,29.4400043 197.565554,28.58 C198.435558,27.7199957 199.350549,26.5000079 200.310554,24.92 C201.270559,23.3399921 202.250549,21.2700128 203.250554,18.71 C203.330554,18.4699988 203.420554,18.2300012 203.520554,17.99 C203.620555,17.7499988 203.710554,17.5000013 203.790554,17.24 C204.010555,17.3000003 204.290552,17.3549998 204.630554,17.405 C204.970556,17.4550003 205.240553,17.48 205.440554,17.48 C204.780551,19.0600079 204.210556,20.4599939 203.730554,21.68 C203.250552,22.9000061 202.860556,23.9749954 202.560554,24.905 C202.260553,25.8350047 202.035555,26.6649963 201.885554,27.395 C201.735553,28.1250037 201.660554,28.7999969 201.660554,29.42 C201.660554,29.8600022 201.775553,30.2049988 202.005554,30.455 C202.235555,30.7050012 202.580552,30.83 203.040554,30.83 C203.620557,30.83 204.145552,30.6100022 204.615554,30.17 C205.085556,29.7299978 205.580551,29.0800043 206.100554,28.22 C206.300555,28.4000009 206.495553,28.5599993 206.685554,28.7 C206.875555,28.8400007 207.100553,28.9999991 207.360554,29.18 C206.60055,30.1600049 205.880557,30.9249973 205.200554,31.475 C204.520551,32.0250027 203.720559,32.3 202.800554,32.3 C202.120551,32.3 201.515557,32.0900021 200.985554,31.67 C200.455551,31.2499979 200.190554,30.5900045 200.190554,29.69 C200.190554,29.3499983 200.230554,28.9400024 200.310554,28.46 C200.390554,27.9799976 200.500553,27.440003 200.640554,26.84 L200.370554,26.84 C199.090548,28.9600106 197.80556,30.3899963 196.515554,31.13 C195.225548,31.8700037 193.95056,32.24 192.690554,32.24 C191.650549,32.24 190.815557,31.9700027 190.185554,31.43 C189.555551,30.8899973 189.240554,30.0900053 189.240554,29.03 C189.240554,28.1699957 189.425552,27.3250042 189.795554,26.495 C190.165556,25.6649959 190.565552,24.8650039 190.995554,24.095 C191.425556,23.3249961 191.825552,22.5800036 192.195554,21.86 C192.565556,21.1399964 192.750554,20.4600032 192.750554,19.82 C192.750554,19.4399981 192.670555,19.1600009 192.510554,18.98 C192.350553,18.7999991 192.120556,18.71 191.820554,18.71 C191.420552,18.71 190.980556,18.8899982 190.500554,19.25 C190.020552,19.6100018 189.430558,20.3299946 188.730554,21.41 C188.550553,21.2299991 188.360555,21.0550008 188.160554,20.885 C187.960553,20.7149992 187.760555,20.5600007 187.560554,20.42 C188.320558,19.3599947 189.06555,18.5650026 189.795554,18.035 C190.525558,17.5049974 191.29055,17.24 192.090554,17.24 Z M214.600277,19.91 C214.600277,19.509998 214.545278,19.210001 214.435277,19.01 C214.325276,18.809999 214.130278,18.71 213.850277,18.71 C213.530275,18.71 213.190279,18.8549986 212.830277,19.145 C212.470275,19.4350015 212.070279,19.8299975 211.630277,20.33 C211.490276,20.129999 211.345278,19.930001 211.195277,19.73 C211.045276,19.529999 210.870278,19.330001 210.670277,19.13 C211.410281,18.4099964 212.050274,17.9150014 212.590277,17.645 C213.13028,17.3749987 213.660274,17.24 214.180277,17.24 C214.80028,17.24 215.245276,17.4249982 215.515277,17.795 C215.785278,18.1650019 215.920277,18.7199963 215.920277,19.46 C215.920277,19.8000017 215.890277,20.2049976 215.830277,20.675 C215.770277,21.1450024 215.680278,21.679997 215.560277,22.28 L215.830277,22.28 C216.630281,20.4199907 217.385273,19.1150037 218.095277,18.365 C218.805281,17.6149963 219.620272,17.24 220.540277,17.24 C221.10028,17.24 221.560275,17.4649978 221.920277,17.915 C222.280279,18.3650022 222.460277,19.0799951 222.460277,20.06 C222.460277,20.3200013 222.435277,20.6449981 222.385277,21.035 C222.335277,21.4250019 222.270277,21.8499977 222.190277,22.31 L222.460277,22.31 C223.320281,20.4499907 224.175273,19.1400038 225.025277,18.38 C225.875281,17.6199962 226.790272,17.24 227.770277,17.24 C228.43028,17.24 228.980275,17.4599978 229.420277,17.9 C229.860279,18.3400022 230.080277,19.0299953 230.080277,19.97 C230.080277,20.6900036 229.885279,21.4949955 229.495277,22.385 C229.105275,23.2750044 228.670279,24.1699955 228.190277,25.07 C227.710275,25.9700045 227.275279,26.8349958 226.885277,27.665 C226.495275,28.4950041 226.300277,29.209997 226.300277,29.81 C226.300277,30.1300016 226.380276,30.3749992 226.540277,30.545 C226.700278,30.7150009 226.970275,30.8 227.350277,30.8 C227.650279,30.8 227.985275,30.7050009 228.355277,30.515 C228.725279,30.3249991 229.120275,30.0000023 229.540277,29.54 C229.640278,29.7200009 229.780276,29.9199989 229.960277,30.14 C230.140278,30.3600011 230.310276,30.569999 230.470277,30.77 C229.950274,31.2700025 229.44028,31.6499987 228.940277,31.91 C228.440275,32.1700013 227.91028,32.3 227.350277,32.3 C226.550273,32.3 225.925279,32.0900021 225.475277,31.67 C225.025275,31.2499979 224.800277,30.6200042 224.800277,29.78 C224.800277,29.0199962 224.995275,28.1950044 225.385277,27.305 C225.775279,26.4149956 226.200275,25.5300044 226.660277,24.65 C227.120279,23.7699956 227.545275,22.9200041 227.935277,22.1 C228.325279,21.2799959 228.520277,20.570003 228.520277,19.97 C228.520277,19.5499979 228.430278,19.2350011 228.250277,19.025 C228.070276,18.8149989 227.810279,18.71 227.470277,18.71 C226.470272,18.71 225.355283,19.5549916 224.125277,21.245 C222.895271,22.9350085 221.540284,25.7399804 220.060277,29.66 C219.920276,30.060002 219.770278,30.4699979 219.610277,30.89 C219.450276,31.3100021 219.290278,31.7399978 219.130277,32.18 C218.870276,32.0999996 218.610278,32.0350002 218.350277,31.985 C218.090276,31.9349997 217.820278,31.8900002 217.540277,31.85 C218.960284,28.4099828 219.925274,25.7950089 220.435277,24.005 C220.94528,22.214991 221.200277,20.8800044 221.200277,20 C221.200277,19.599998 221.120278,19.2850011 220.960277,19.055 C220.800276,18.8249989 220.560279,18.71 220.240277,18.71 C219.920275,18.71 219.550279,18.8399987 219.130277,19.1 C218.710275,19.3600013 218.23528,19.8799961 217.705277,20.66 C217.175274,21.4400039 216.560281,22.5599927 215.860277,24.02 C215.160274,25.4800073 214.360282,27.3899882 213.460277,29.75 C213.320276,30.1300019 213.180278,30.5249979 213.040277,30.935 C212.900276,31.3450021 212.750278,31.7599979 212.590277,32.18 C212.310276,32.0999996 212.030278,32.0300003 211.750277,31.97 C211.470276,31.9099997 211.220278,31.8700001 211.000277,31.85 C211.50028,30.6299939 211.970275,29.4000062 212.410277,28.16 C212.850279,26.9199938 213.230275,25.7600054 213.550277,24.68 C213.870279,23.5999946 214.125276,22.6400042 214.315277,21.8 C214.505278,20.9599958 214.600277,20.3300021 214.600277,19.91 Z"/>
      <path id="Vitae" d="M125.931385,59 L124.911385,58.94 C124.571383,58.9199999 124.161387,58.9399997 123.681385,59 C123.601385,58.0799954 123.481386,56.8850074 123.321385,55.415 C123.161384,53.9449927 122.991386,52.4450077 122.811385,50.915 C122.631384,49.3849924 122.451386,47.915007 122.271385,46.505 C122.091384,45.094993 121.951385,43.9800041 121.851385,43.16 C121.791385,42.6599975 121.646386,42.2850013 121.416385,42.035 C121.186384,41.7849987 120.781388,41.66 120.201385,41.66 L119.736385,41.66 C119.566384,41.66 119.381386,41.6699999 119.181385,41.69 C119.241385,41.489999 119.321384,41.2250017 119.421385,40.895 C119.521385,40.5649984 119.581385,40.3200008 119.601385,40.16 C119.881386,40.1800001 120.451381,40.195 121.311385,40.205 C122.171389,40.2150001 123.08638,40.22 124.056385,40.22 C125.02639,40.22 125.941381,40.2150001 126.801385,40.205 C127.661389,40.195 128.221384,40.1800001 128.481385,40.16 C128.381384,40.4200013 128.286385,40.6699988 128.196385,40.91 C128.106385,41.1500012 128.021385,41.3999987 127.941385,41.66 C127.721384,41.66 127.456387,41.655 127.146385,41.645 C126.836383,41.635 126.301389,41.63 125.541385,41.63 C124.841381,41.63 124.346386,41.7549987 124.056385,42.005 C123.766384,42.2550012 123.621385,42.5999978 123.621385,43.04 C123.621385,43.5800027 123.686384,44.4449941 123.816385,45.635 C123.946386,46.8250059 124.096384,48.119993 124.266385,49.52 C124.436386,50.920007 124.616384,52.324993 124.806385,53.735 C124.996386,55.1450071 125.151384,56.3399951 125.271385,57.32 C125.911388,56.3799953 126.611381,55.3450056 127.371385,54.215 C128.131389,53.0849944 128.886381,51.9550057 129.636385,50.825 C130.386389,49.6949944 131.111381,48.5800055 131.811385,47.48 L133.701385,44.51 C134.001386,44.0299976 134.216384,43.6450015 134.346385,43.355 C134.476386,43.0649985 134.541385,42.7800014 134.541385,42.5 C134.541385,42.2399987 134.426386,42.0300008 134.196385,41.87 C133.966384,41.7099992 133.541388,41.63 132.921385,41.63 L131.886385,41.63 C131.376382,41.63 130.991386,41.6399999 130.731385,41.66 C130.811385,41.459999 130.901384,41.2000016 131.001385,40.88 C131.101385,40.5599984 131.171385,40.3200008 131.211385,40.16 C131.491386,40.1800001 132.066381,40.195 132.936385,40.205 C133.806389,40.2150001 134.72638,40.22 135.696385,40.22 C136.66639,40.22 137.586381,40.2150001 138.456385,40.205 C139.326389,40.195 139.891384,40.1800001 140.151385,40.16 C140.051384,40.4200013 139.946386,40.6749988 139.836385,40.925 C139.726384,41.1750013 139.641385,41.4199988 139.581385,41.66 C139.481384,41.66 139.361386,41.655 139.221385,41.645 C139.081384,41.635 138.941386,41.63 138.801385,41.63 C138.261382,41.63 137.866386,41.7249991 137.616385,41.915 C137.366384,42.105001 137.051387,42.4599974 136.671385,42.98 C136.251383,43.5600029 135.56139,44.5599929 134.601385,45.98 C133.64138,47.4000071 132.61639,48.9249918 131.526385,50.555 C130.43638,52.1850082 129.37139,53.7849922 128.331385,55.355 C127.29138,56.9250079 126.491388,58.1399957 125.931385,59 Z M150.331108,39.56 C150.331108,38.9999972 150.521106,38.5050021 150.901108,38.075 C151.28111,37.6449978 151.831108,37.43 152.551108,37.43 C153.271112,37.43 153.821106,37.6449978 154.201108,38.075 C154.58111,38.5050021 154.771108,38.9999972 154.771108,39.56 C154.771108,40.160003 154.58111,40.659998 154.201108,41.06 C153.821106,41.460002 153.271112,41.66 152.551108,41.66 C151.771104,41.66 151.20611,41.460002 150.856108,41.06 C150.506106,40.659998 150.331108,40.160003 150.331108,39.56 Z M146.941108,56.12 C146.941108,55.2999959 147.131106,54.4850041 147.511108,53.675 C147.89111,52.864996 148.306106,52.0800038 148.756108,51.32 C149.20611,50.5599962 149.621106,49.8300035 150.001108,49.13 C150.38111,48.4299965 150.571108,47.780003 150.571108,47.18 C150.571108,46.6999976 150.431109,46.3450012 150.151108,46.115 C149.871107,45.8849989 149.461111,45.77 148.921108,45.77 C148.001103,45.77 146.961114,46.0999967 145.801108,46.76 C144.641102,47.4200033 143.251116,48.649991 141.631108,50.45 C141.451107,50.2099988 141.266109,50.0150007 141.076108,49.865 C140.886107,49.7149993 140.661109,49.5200012 140.401108,49.28 C142.081116,47.6399918 143.596101,46.3900043 144.946108,45.53 C146.296115,44.6699957 147.671101,44.24 149.071108,44.24 C149.951112,44.24 150.721105,44.4849976 151.381108,44.975 C152.041111,45.4650025 152.371108,46.1999951 152.371108,47.18 C152.371108,47.8000031 152.18111,48.4949961 151.801108,49.265 C151.421106,50.0350039 151.01111,50.819996 150.571108,51.62 C150.131106,52.420004 149.72111,53.2049961 149.341108,53.975 C148.961106,54.7450039 148.771108,55.4199971 148.771108,56 C148.771108,56.6400032 148.921106,57.1049986 149.221108,57.395 C149.521109,57.6850015 150.041104,57.83 150.781108,57.83 C151.841113,57.83 152.946102,57.4750035 154.096108,56.765 C155.246114,56.0549965 156.341103,54.8700083 157.381108,53.21 C157.581109,53.410001 157.801107,53.5849992 158.041108,53.735 C158.281109,53.8850008 158.561106,54.0299993 158.881108,54.17 C157.541101,56.1500099 156.161115,57.4999964 154.741108,58.22 C153.321101,58.9400036 151.951115,59.3 150.631108,59.3 C149.451102,59.3 148.541111,59.0300027 147.901108,58.49 C147.261105,57.9499973 146.941108,57.1600052 146.941108,56.12 Z M175.840831,40.85 C175.500829,41.5300034 175.170833,42.1849969 174.850831,42.815 C174.530829,43.4450032 174.230832,44.0499971 173.950831,44.63 L176.650831,44.63 C177.550835,44.63 178.385827,44.625 179.155831,44.615 C179.925835,44.6049999 180.600828,44.5900001 181.180831,44.57 C181.760834,44.5499999 182.19083,44.5300001 182.470831,44.51 C182.37083,44.7900014 182.280831,45.0699986 182.200831,45.35 C182.120831,45.6300014 182.050831,45.8999987 181.990831,46.16 C181.71083,46.1399999 181.270834,46.1250001 180.670831,46.115 C180.070828,46.105 179.375835,46.1 178.585831,46.1 L173.230831,46.1 C172.210826,48.1800104 171.405834,49.9599926 170.815831,51.44 C170.225828,52.9200074 169.930831,54.1999946 169.930831,55.28 C169.930831,56.1200042 170.125829,56.739998 170.515831,57.14 C170.905833,57.540002 171.480827,57.74 172.240831,57.74 C173.260836,57.74 174.310826,57.4050034 175.390831,56.735 C176.470836,56.0649966 177.640825,54.8900084 178.900831,53.21 C179.120832,53.4700013 179.34583,53.694999 179.575831,53.885 C179.805832,54.075001 180.06083,54.2499992 180.340831,54.41 C178.860824,56.1500087 177.440838,57.4049962 176.080831,58.175 C174.720824,58.9450038 173.370838,59.3200001 172.030831,59.3 C170.830825,59.2799999 169.910834,58.9600031 169.270831,58.34 C168.630828,57.7199969 168.310831,56.7900062 168.310831,55.55 C168.310831,54.2499935 168.605828,52.8150079 169.195831,51.245 C169.785834,49.6749922 170.530826,47.9600093 171.430831,46.1 C170.110824,46.1 168.935836,46.1099999 167.905831,46.13 C166.875826,46.1500001 166.170833,46.1699999 165.790831,46.19 C165.870831,45.9099986 165.950831,45.6250014 166.030831,45.335 C166.110831,45.0449986 166.160831,44.7700013 166.180831,44.51 C166.560833,44.5300001 167.300825,44.5549999 168.400831,44.585 C169.500836,44.6150002 170.740824,44.63 172.120831,44.63 C172.380832,44.0699972 172.65583,43.490003 172.945831,42.89 C173.235832,42.289997 173.530829,41.6800031 173.830831,41.06 C174.150833,41.06 174.485829,41.0400002 174.835831,41 C175.185833,40.9599998 175.520829,40.9100003 175.840831,40.85 Z M202.130554,44.3 C202.410555,44.3800004 202.695553,44.4499997 202.985554,44.51 C203.275555,44.5700003 203.630552,44.6199998 204.050554,44.66 C203.410551,46.0000067 202.845556,47.2849939 202.355554,48.515 C201.865552,49.7450062 201.460556,50.8649949 201.140554,51.875 C200.820552,52.8850051 200.580555,53.7799961 200.420554,54.56 C200.260553,55.3400039 200.180554,55.9699976 200.180554,56.45 C200.180554,56.9300024 200.280553,57.2799989 200.480554,57.5 C200.680555,57.7200011 200.980552,57.83 201.380554,57.83 C201.920557,57.83 202.450551,57.6450018 202.970554,57.275 C203.490557,56.9049981 204.10055,56.2100051 204.800554,55.19 C205.000555,55.390001 205.195553,55.5599993 205.385554,55.7 C205.575555,55.8400007 205.800553,55.9899992 206.060554,56.15 C205.20055,57.1700051 204.405558,57.9499973 203.675554,58.49 C202.94555,59.0300027 202.120559,59.3 201.200554,59.3 C200.34055,59.3 199.670556,59.0700023 199.190554,58.61 C198.710552,58.1499977 198.470554,57.4800044 198.470554,56.6 C198.470554,56.3399987 198.495554,56.0450017 198.545554,55.715 C198.595554,55.3849984 198.660554,55.020002 198.740554,54.62 L198.500554,54.62 C197.560549,56.3000084 196.52556,57.4999964 195.395554,58.22 C194.265548,58.9400036 193.040561,59.3 191.720554,59.3 C190.280547,59.3 189.180558,58.8650043 188.420554,57.995 C187.66055,57.1249957 187.280554,55.9700072 187.280554,54.53 C187.280554,53.3099939 187.510552,52.0800062 187.970554,50.84 C188.430556,49.5999938 189.06055,48.4950049 189.860554,47.525 C190.660558,46.5549951 191.595549,45.7600031 192.665554,45.14 C193.735559,44.5199969 194.870548,44.21 196.070554,44.21 C197.27056,44.21 198.25555,44.5199969 199.025554,45.14 C199.795558,45.7600031 200.430551,46.569995 200.930554,47.57 C201.110555,47.0699975 201.305553,46.5400028 201.515554,45.98 C201.725555,45.4199972 201.930553,44.8600028 202.130554,44.3 Z M192.020554,57.83 C192.560557,57.83 193.150551,57.730001 193.790554,57.53 C194.430557,57.329999 195.090551,56.9500028 195.770554,56.39 C196.450557,55.8299972 197.15055,55.0550049 197.870554,54.065 C198.590558,53.074995 199.30055,51.8000078 200.000554,50.24 C200.060554,50.039999 200.125554,49.840001 200.195554,49.64 C200.265554,49.439999 200.340554,49.240001 200.420554,49.04 C199.800551,47.8799942 199.145557,47.0400026 198.455554,46.52 C197.765551,45.9999974 196.960559,45.74 196.040554,45.74 C195.060549,45.74 194.140558,46.0149973 193.280554,46.565 C192.42055,47.1150028 191.675557,47.8099958 191.045554,48.65 C190.415551,49.4900042 189.915556,50.4249948 189.545554,51.455 C189.175552,52.4850051 188.990554,53.4799952 188.990554,54.44 C188.990554,55.6000058 189.250551,56.4549973 189.770554,57.005 C190.290557,57.5550027 191.040549,57.83 192.020554,57.83 Z M221.220277,45.74 C220.080271,45.74 219.035282,45.9049983 218.085277,46.235 C217.135272,46.5650016 216.31028,47.0099972 215.610277,47.57 C214.910273,48.1300028 214.330279,48.7849962 213.870277,49.535 C213.410275,50.2850038 213.100278,51.0799958 212.940277,51.92 C217.200298,51.9800003 220.365267,51.7000031 222.435277,51.08 C224.505287,50.4599969 225.540277,49.5400061 225.540277,48.32 C225.540277,47.4999959 225.165281,46.8650023 224.415277,46.415 C223.665273,45.9649978 222.600284,45.74 221.220277,45.74 Z M219.030277,57.83 C220.210283,57.83 221.47527,57.625002 222.825277,57.215 C224.175284,56.804998 225.420271,56.0300057 226.560277,54.89 C226.700278,55.1100011 226.870276,55.3449988 227.070277,55.595 C227.270278,55.8450013 227.450276,56.0499992 227.610277,56.21 C226.13027,57.4300061 224.640284,58.2499979 223.140277,58.67 C221.640269,59.0900021 220.140284,59.3 218.640277,59.3 C216.120264,59.3 214.245283,58.7550054 213.015277,57.665 C211.785271,56.5749945 211.170277,55.1600087 211.170277,53.42 C211.170277,52.2799943 211.395275,51.1550055 211.845277,50.045 C212.295279,48.9349945 212.955273,47.9500043 213.825277,47.09 C214.695281,46.2299957 215.78027,45.5350027 217.080277,45.005 C218.380283,44.4749974 219.860269,44.21 221.520277,44.21 C223.440287,44.21 224.890272,44.614996 225.870277,45.425 C226.850282,46.2350041 227.340277,47.1799946 227.340277,48.26 C227.340277,50.0200088 226.150289,51.3349956 223.770277,52.205 C221.390265,53.0750044 217.740302,53.4600005 212.820277,53.36 C212.860277,54.8600075 213.410272,55.9799963 214.470277,56.72 C215.530282,57.4600037 217.050267,57.83 219.030277,57.83 Z"/>
    </g>
  </g>
</svg>
