<svg xmlns="http://www.w3.org/2000/svg" width="342" height="50" viewBox="0 0 342 50">
  <g id="header_name" fill="none" fill-rule="evenodd" stroke="none" stroke-width="1">
    <g id="logo-(1)" fill="#D32F2F" fill-rule="nonzero">
      <path id="Shape" d="M133.315826 15.4049914L131.798145 19.3877551 128 19.3877551 135.200116-2.84217094e-14 137.993043-2.84217094e-14 145 19.3877551 141.154551 19.3877551 139.733449 15.4049914 133.315826 15.4049914zM136.428058 5.52870488L136.382725 5.52870488 134.348638 12.3937318 138.734145 12.3937318 136.428058 5.52870488zM159.003924-2.84217094e-14L164.124439-2.84217094e-14C169.439182-2.84217094e-14 173 4.19071715 173 9.72180188 173 15.1722163 169.343049 19.3877551 164.100897 19.3877551L159 19.3877551 159.003924-2.84217094e-14zM162.588285 16.0926848L163.17685 16.0926848C167.591087 16.0926848 169.297926 13.5215785 169.297926 9.69284332 169.297926 5.47523608 167.24972 3.29093336 163.17685 3.29093336L162.588285 3.29093336 162.588285 16.0926848z"/>
      <polygon id="Path" points="190.769 3.292 190.769 7.56 196.769 7.56 196.769 10.851 190.769 10.851 190.769 16.096 197 16.096 197 19.388 187 19.388 187 0 197 0 197 3.292"/>
      <polygon id="Path" points="211 0 213.602 0 223.344 12.947 223.393 12.947 223.393 .492 227 .492 227 19.388 224.398 19.388 214.656 6.439 214.617 6.439 214.617 19.018 211.01 19.018"/>
      <polygon id="Path" points="131.769 33.904 131.769 38.172 137.769 38.172 137.769 41.464 131.769 41.464 131.769 46.708 138 46.708 138 50 128 50 128 30.612 138 30.612 138 33.904"/>
      <path id="Shape" d="M156.312007 44.9972421L154.794854 48.9795918 151 48.9795918 158.203523 29.5918367 160.99548 29.5918367 168 48.9795918 164.149977 48.9795918 162.73528 44.9972421 156.312007 44.9972421zM159.423157 35.1219823L159.373899 35.1219823 157.340519 41.9742034 161.724502 41.9742034 159.423157 35.1219823zM194 50L189.463638 50 184.798075 42.1836582 184.746805 42.1836582 184.746805 50 181 50 181 30.6122449 186.073671 30.6122449C189.869696 30.6122449 192.496766 32.3087511 192.496766 36.4486399 192.496766 38.9168494 191.145291 41.385059 188.571541 41.8278057L194 50zM184.746805 39.5354535L185.230794 39.5354535C187.295946 39.5354535 188.749961 38.9147805 188.749961 36.5520854 188.749961 34.1893902 187.244676 33.6969896 185.263606 33.6969896L184.752958 33.6969896 184.746805 39.5354535z"/>
      <polygon id="Path" points="208 30.612 210.599 30.612 220.335 43.561 220.385 43.561 220.385 31.106 224 31.106 224 50 221.401 50 211.665 37.053 211.615 37.053 211.615 49.632 208.01 49.632"/>
      <path id="Path" d="M247.642246,35.1546537 C246.942163,34.2273107 246.032858,33.6398625 244.825817,33.6398625 C243.650964,33.6398625 242.524392,34.5200524 242.524392,35.7165606 C242.524392,38.8168725 250,37.5240935 250,43.7011408 C250,47.3889008 247.650293,50 243.799832,50 C241.200671,50 239.299581,48.5362913 238,46.4104754 L240.373847,44.1412357 C240.874769,45.5558267 242.200503,46.8269939 243.775692,46.8269939 C245.274434,46.8269939 246.189774,45.5813679 246.189774,44.1648123 C246.189774,42.2610086 244.379212,41.7226781 242.914669,41.1607712 C240.500587,40.1784163 238.714166,38.9878023 238.714166,36.1311144 C238.714166,33.0799203 241.039732,30.6122449 244.21425,30.6122449 C245.890025,30.6122449 248.215591,31.4177759 249.366303,32.6634018 L247.642246,35.1546537 Z"/>
      <polygon id="Path" points="274.365 38.249 274.365 30.612 278 30.612 278 50 274.365 50 274.365 41.335 267.639 41.335 267.639 50 264 50 264 30.612 267.635 30.612 267.635 38.249"/>
      <path id="Shape" d="M296.321122,44.9972421 L294.803617,48.9795918 L291,48.9795918 L298.201252,29.5918367 L300.993856,29.5918367 L308,48.9795918 L304.154997,48.9795918 L302.73406,44.9972421 L296.321122,44.9972421 Z M299.432993,35.1219823 L299.383724,35.1219823 L297.349872,41.9742034 L301.734871,41.9742034 L299.432993,35.1219823 Z"/>
      <polygon id="Path" points="324.612 43.654 324.66 43.654 328.389 30.612 330.553 30.612 334.434 43.654 334.484 43.654 338.165 30.861 342 30.861 335.657 50 332.969 50 329.238 37.73 329.19 37.73 325.657 50 322.971 50 317 30.861 320.831 30.861"/>
      <path id="Path" d="M108,1.02040816 C107.996734,8.4271584 102.162213,14.4294189 94.9668091,14.4282974 L47.4834045,14.4282974 C38.3172005,14.4218272 29.5247296,18.167731 23.0439828,24.8403562 C16.563236,31.5129814 12.9262261,40.5645637 12.934604,50 L0,50 C0,22.9711079 21.225764,1.02040816 47.4834045,1.02040816 L108,1.02040816 Z"/>
      <path id="Path" d="M108,18.3673469 C107.994536,25.6036529 102.18135,31.4672238 95.0115968,31.4683246 L47.3306934,31.4683246 C42.7266118,31.4582093 38.3083018,33.3000848 35.0532742,36.586453 C31.7982466,39.8728212 29.9748244,44.3327756 29.9864233,48.9795918 L17,48.9795918 C16.9994748,40.8605572 20.1948522,33.073905 25.8830744,27.3328805 C31.5712967,21.5918561 39.2863324,18.3668169 47.3306934,18.3673469 L108,18.3673469 Z"/>
      <path id="Path" d="M108,35.7142857 C107.998903,43.040053 102.120631,48.9784838 94.8690773,48.9795918 L34,48.9795918 C34,41.6405261 39.8721645,35.7142857 47.0296099,35.7142857 L108,35.7142857 Z"/>
    </g>
  </g>
</svg>
