<svg xmlns="http://www.w3.org/2000/svg" width="618" height="36" viewBox="0 0 618 36">
  <g id="header_name_mobile" fill="none" fill-rule="evenodd" stroke="none" stroke-width="1">
    <g id="logo-(1)" fill="#D32F2F" fill-rule="nonzero">
      <g id="Group-4" transform="translate(91)">
        <path id="Shape" d="M9.93268542 28.6046367L7.0968798 36 0 36 13.4535038 0 18.6721228 0 31.7647059 36 24.5794373 36 21.9240921 28.6046367 9.93268542 28.6046367zM15.7479284 10.265932L15.6632225 10.265932 11.8625064 23.013203 20.0568798 23.013203 15.7479284 10.265932zM47.242713 0L56.9243603 0C66.9732425 0 73.7058824 7.78150005 73.7058824 18.0518511 73.7058824 28.1724101 66.7914798 36 56.879847 36L47.2352941 36 47.242713 0zM54.0198661 29.8815747L55.1326992 29.8815747C63.4789468 29.8815747 66.7061626 25.1074363 66.7061626 17.9980796 66.7061626 10.1666489 62.8335037 6.11074363 55.1326992 6.11074363L54.0198661 6.11074363 54.0198661 29.8815747z"/>
        <polygon id="Path" points="99.36 6.112 99.36 14.037 110.795 14.037 110.795 20.149 99.36 20.149 99.36 29.888 111.235 29.888 111.235 36 92.176 36 92.176 0 111.235 0 111.235 6.112"/>
        <polygon id="Path" points="130.706 0 135.7 0 154.395 24.04 154.489 24.04 154.489 .914 161.412 .914 161.412 36 156.418 36 137.723 11.956 137.647 11.956 137.647 35.314 130.725 35.314"/>
      </g>
      <g id="Group-2" transform="translate(299 1)">
        <polygon id="Path" points="6.785 5.806 6.785 13.335 17.584 13.335 17.584 19.142 6.785 19.142 6.785 28.394 18 28.394 18 34.2 0 34.2 0 0 18 0 18 5.806"/>
        <path id="Shape" d="M40.5616134 27.1751351L37.8307371 34.2 31 34.2 43.9663421 0 48.9918637 0 61.6 34.2 54.6699583 34.2 52.1235049 27.1751351 40.5616134 27.1751351zM46.1616829 9.75517672L46.0730181 9.75517672 42.4129346 21.8424948 50.3041029 21.8424948 46.1616829 9.75517672zM98.4 34.2L90.234548 34.2 81.8365357 20.4119731 81.7442499 20.4119731 81.7442499 34.2 75 34.2 75 0 84.1326077 0C90.965452 0 95.6941789 2.99263686 95.6941789 10.2954007 95.6941789 14.6493224 93.2615239 19.0032441 88.6287743 19.7842493L98.4 34.2zM81.7442499 15.74054L82.6154283 15.74054C86.3327023 15.74054 88.949929 14.6456728 88.949929 10.4778786 88.949929 6.3100843 86.2404165 5.4414897 82.6744912 5.4414897L81.7553242 5.4414897 81.7442499 15.74054z"/>
        <polygon id="Path" points="114 0 118.678 0 136.204 22.842 136.293 22.842 136.293 .872 142.8 .872 142.8 34.2 138.122 34.2 120.596 11.362 120.507 11.362 120.507 33.551 114.018 33.551"/>
        <path id="Path" d="M175.356044,8.01280908 C174.095893,6.37697608 172.459145,5.34071747 170.286471,5.34071747 C168.171735,5.34071747 166.143906,6.89337252 166.143906,9.00401297 C166.143906,14.4729631 179.6,12.192501 179.6,23.0888123 C179.6,29.5940211 175.370528,34.2 168.439698,34.2 C163.761207,34.2 160.339246,31.6180178 158,27.8680786 L162.272925,23.8651398 C163.174585,26.3604783 165.560905,28.6028172 168.396245,28.6028172 C171.093982,28.6028172 172.741593,26.405533 172.741593,23.9067288 C172.741593,20.5484191 169.482582,19.5988042 166.846404,18.6076003 C162.501056,16.8747264 159.285499,14.7744832 159.285499,9.73528577 C159.285499,4.35297933 163.471517,0 169.18565,0 C172.202045,0 176.388064,1.42095663 178.459346,3.61824078 L175.356044,8.01280908 Z"/>
        <polygon id="Path" points="213.657 13.471 213.657 0 220.2 0 220.2 34.2 213.657 34.2 213.657 18.916 201.55 18.916 201.55 34.2 195 34.2 195 0 201.543 0 201.543 13.471"/>
        <path id="Shape" d="M242.57802,27.1751351 L239.846511,34.2 L233,34.2 L245.962254,0 L250.98894,0 L263.6,34.2 L256.678994,34.2 L254.121308,27.1751351 L242.57802,27.1751351 Z M248.179388,9.75517672 L248.090703,9.75517672 L244.42977,21.8424948 L252.322768,21.8424948 L248.179388,9.75517672 Z"/>
        <polygon id="Path" points="287.702 23.005 287.788 23.005 294.5 0 298.395 0 305.381 23.005 305.471 23.005 312.097 .438 319 .438 307.582 34.2 302.744 34.2 296.028 12.555 295.942 12.555 289.582 34.2 284.747 34.2 274 .438 280.896 .438"/>
      </g>
      <g id="Group-3">
        <path id="Path" d="M81,2.84217094e-14 C80.9975504,5.44396142 76.6216599,9.85562289 71.2251068,9.85479861 L35.6125534,9.85479861 C28.7379004,9.85004296 22.1435472,12.6032823 17.2829871,17.5076618 C12.422427,22.4120413 9.69466958,29.0649543 9.70095301,36 L0,36 C0,16.1337643 15.919323,2.84217094e-14 35.6125534,2.84217094e-14 L81,2.84217094e-14 Z"/>
        <path id="Path" d="M81,12 C80.9959171,17.4368779 76.6519977,21.8423742 71.29438,21.8432013 L35.664694,21.8432013 C32.2242814,21.8356012 28.9226871,23.2194637 26.4903587,25.6886217 C24.0580304,28.1577796 22.6954732,31.508692 22.7041405,35 L13,35 C12.9996076,28.8998987 15.3873621,23.0495273 19.6379018,18.7361042 C23.8884415,14.4226812 29.6535231,11.9996018 35.664694,12 L81,12 Z"/>
        <path id="Path" d="M81,25 C80.99917,30.5225015 76.550748,34.9991647 71.0630856,35 L25,35 C25,29.4674735 29.4438002,25 34.8602454,25 L81,25 Z"/>
      </g>
    </g>
  </g>
</svg>
