<svg xmlns="http://www.w3.org/2000/svg" width="40" height="40" viewBox="0 0 40 40">
  <g id="ic_print" fill="none" fill-rule="evenodd" stroke="none" stroke-width="1">
    <g id="outline-local_printshop-24px">
      <polygon id="Path" points="0 0 40 0 40 40 0 40"/>
      <path id="Shape" fill="#212121" fill-rule="nonzero" d="M31.05,13.3333333 L29.4,13.3333333 L29.4,5 L9.6,5 L9.6,13.3333333 L7.95,13.3333333 C5.211,13.3333333 3,15.5666667 3,18.3333333 L3,28.3333333 L9.6,28.3333333 L9.6,35 L29.4,35 L29.4,28.3333333 L36,28.3333333 L36,18.3333333 C36,15.5666667 33.789,13.3333333 31.05,13.3333333 Z M12.9,8.33333333 L26.1,8.33333333 L26.1,13.3333333 L12.9,13.3333333 L12.9,8.33333333 Z M26.1,31.6666667 L12.9,31.6666667 L12.9,25 L26.1,25 L26.1,31.6666667 Z M29.4,25 L29.4,21.6666667 L9.6,21.6666667 L9.6,25 L6.3,25 L6.3,18.3333333 C6.3,17.4166667 7.0425,16.6666667 7.95,16.6666667 L31.05,16.6666667 C31.9575,16.6666667 32.7,17.4166667 32.7,18.3333333 L32.7,25 L29.4,25 Z"/>
      <circle id="Oval" cx="29.5" cy="19.5" r="1.5" fill="#212121" fill-rule="nonzero"/>
    </g>
  </g>
</svg>
